<mxfile host="Electron" modified="2023-06-11T21:25:49.542Z" agent="Mozilla/5.0 (X11; Linux x86_64) AppleWebKit/537.36 (KHTML, like Gecko) draw.io/21.2.8 Chrome/112.0.5615.165 Electron/24.2.0 Safari/537.36" etag="_VbcPylcRzKeenrqO9nD" version="21.2.8" type="device">
  <diagram name="Page-1" id="9Tnwvl1Et7KVVq70DN3C">
    <mxGraphModel dx="1134" dy="1924" grid="1" gridSize="10" guides="1" tooltips="1" connect="1" arrows="1" fold="1" page="1" pageScale="1" pageWidth="850" pageHeight="1100" math="1" shadow="0">
      <root>
        <mxCell id="0" />
        <mxCell id="1" parent="0" />
        <mxCell id="3ui6ZZYEoctOEYKmVkQ4-1" value="" style="shape=image;verticalLabelPosition=bottom;labelBackgroundColor=default;verticalAlign=top;aspect=fixed;imageAspect=0;image=file:///home/xteca/Insync/ax2ct%40outlook.com/Google%20Drive/Workshop/PPC2023/Presentation/images/01_FIG_5_1e%2B15.png;" vertex="1" parent="1">
          <mxGeometry x="40" y="150" width="956" height="710" as="geometry" />
        </mxCell>
        <mxCell id="3ui6ZZYEoctOEYKmVkQ4-4" value="" style="ellipse;whiteSpace=wrap;html=1;fillColor=none;strokeWidth=4;strokeColor=#67AB9F;rotation=12;" vertex="1" parent="1">
          <mxGeometry x="540" y="343.47" width="230" height="80" as="geometry" />
        </mxCell>
        <mxCell id="3ui6ZZYEoctOEYKmVkQ4-5" value="Dent" style="text;html=1;strokeColor=none;fillColor=none;align=center;verticalAlign=middle;whiteSpace=wrap;rounded=0;fontFamily=IBM Plex Sans;fontSize=38;fontStyle=2;fontColor=#67AB9F;rotation=11;" vertex="1" parent="1">
          <mxGeometry x="630" y="350" width="60" height="30" as="geometry" />
        </mxCell>
        <mxCell id="3ui6ZZYEoctOEYKmVkQ4-6" value="" style="endArrow=none;dashed=1;html=1;rounded=0;entryX=0;entryY=0.5;entryDx=0;entryDy=0;strokeWidth=4;" edge="1" parent="1" target="3ui6ZZYEoctOEYKmVkQ4-4">
          <mxGeometry width="50" height="50" relative="1" as="geometry">
            <mxPoint x="543" y="750" as="sourcePoint" />
            <mxPoint x="580" y="550" as="targetPoint" />
          </mxGeometry>
        </mxCell>
        <mxCell id="3ui6ZZYEoctOEYKmVkQ4-7" value="" style="endArrow=none;dashed=1;html=1;rounded=0;entryX=0;entryY=0.5;entryDx=0;entryDy=0;strokeWidth=4;" edge="1" parent="1">
          <mxGeometry width="50" height="50" relative="1" as="geometry">
            <mxPoint x="770" y="750" as="sourcePoint" />
            <mxPoint x="770" y="410" as="targetPoint" />
          </mxGeometry>
        </mxCell>
        <mxCell id="3ui6ZZYEoctOEYKmVkQ4-8" value="" style="endArrow=classic;startArrow=classic;html=1;rounded=0;strokeWidth=4;" edge="1" parent="1">
          <mxGeometry width="50" height="50" relative="1" as="geometry">
            <mxPoint x="542" y="610" as="sourcePoint" />
            <mxPoint x="768" y="610" as="targetPoint" />
          </mxGeometry>
        </mxCell>
        <mxCell id="3ui6ZZYEoctOEYKmVkQ4-9" value="$$\mathcal{O}(1-100)\text{MeV}$$" style="text;html=1;strokeColor=none;fillColor=none;align=center;verticalAlign=middle;whiteSpace=wrap;rounded=0;fontFamily=IBM Plex Sans;fontSize=24;" vertex="1" parent="1">
          <mxGeometry x="625" y="560" width="60" height="30" as="geometry" />
        </mxCell>
      </root>
    </mxGraphModel>
  </diagram>
</mxfile>
